<?xml version="1.0" encoding="UTF-8" standalone="no"?>
<svg
   width="500"
   height="500"
   viewBox="0 0 135 135"
   version="1.1"
   xml:space="preserve"
   xmlns="http://www.w3.org/2000/svg"
   xmlns:svg="http://www.w3.org/2000/svg"
>
  <g transform="translate(0, 3)">
    <path
       style="fill:#345e65"
       d="M 7.5991585,102.41306 C 34.300533,81.435463 46.318437,55.988057 57.811472,36.346974 70.752567,14.231234 90.593352,8.2969824 111.93705,25.616702 103.82049,25.276458 98.49317,37.354838 84.148101,53.872282 69.700471,70.507823 44.56227,92.481987 7.5991585,102.41306 Z"
       id="body" />
    <path
       style="fill:#345e65"
       d="M 97.852904,42.119144 C 105.64423,70.635971 101.79353,110.79478 5.6643805,115.55219 64.46,89.799518 93.579124,49.95442 97.852904,42.119144 Z"
       id="belly" />
    <path
       style="fill:#faa343;"
       d="m 102.50472,50.913801 c -4.584599,-22.650221 10.16165,-26.894507 26.5183,-21.47238 -8.23959,2.793409 -20.16491,7.988834 -26.5183,21.47238 z"
       id="beak"/>
    <circle
       style="fill:#ffffff;"
       id="eye"
       cx="90.480888"
       cy="28.07902"
       r="3.5513237" />
  </g>
</svg>
